<?xml version="1.0" standalone="no"?>
<!DOCTYPE svg PUBLIC "-//W3C//DTD SVG 20010904//EN"
 "http://www.w3.org/TR/2001/REC-SVG-20010904/DTD/svg10.dtd">
<svg version="1.0" xmlns="http://www.w3.org/2000/svg"
 width="512.000000pt" height="512.000000pt" viewBox="0 0 512.000000 512.000000"
 preserveAspectRatio="xMidYMid meet">

<g transform="translate(0.000000,512.000000) scale(0.100000,-0.100000)"
fill="#000000" stroke="none">
<path d="M2370 5109 c-193 -22 -356 -103 -493 -243 -81 -83 -111 -137 -142
-260 -62 -246 -59 -516 10 -774 28 -104 79 -235 99 -251 43 -36 70 144 81 529
8 254 16 308 53 345 25 25 32 27 82 22 30 -3 99 -19 152 -36 142 -44 236 -61
335 -61 118 0 205 20 310 71 49 24 96 46 106 51 25 11 125 -114 182 -227 51
-103 75 -205 75 -325 0 -97 22 -215 53 -283 l23 -52 37 105 c76 217 111 403
111 585 0 175 -30 280 -108 384 -14 19 -35 64 -47 100 -56 169 -125 245 -254
280 -50 13 -460 51 -535 50 -30 -1 -89 -5 -130 -10z"/>
<path d="M3122 2659 c13 -22 48 -61 78 -87 110 -92 193 -179 241 -251 119
-179 182 -527 215 -1182 l6 -126 -57 -27 c-140 -69 -161 -254 -39 -354 73 -60
170 -63 252 -8 112 76 123 239 21 331 -22 19 -53 38 -70 42 -16 3 -32 10 -35
15 -3 5 -10 97 -15 206 -24 517 -86 876 -185 1080 -39 80 -59 108 -147 196
-69 70 -129 120 -187 155 -46 28 -88 51 -92 51 -5 0 2 -18 14 -41z m623 -1753
c38 -16 75 -68 75 -104 0 -71 -54 -122 -131 -122 -33 0 -47 6 -75 34 -45 45
-48 108 -7 156 42 50 80 60 138 36z"/>
<path d="M1921 2643 c-95 -52 -210 -156 -277 -249 -56 -78 -134 -242 -173
-361 -32 -98 -75 -306 -86 -413 -13 -144 -10 -137 -66 -144 -181 -24 -350
-175 -399 -355 -21 -78 -12 -179 39 -476 36 -203 56 -297 69 -315 10 -14 39
-32 63 -40 24 -9 55 -23 69 -32 36 -24 75 -31 99 -18 18 9 21 20 21 81 0 66
-1 70 -26 79 -26 10 -79 -8 -126 -42 -15 -11 -21 -9 -37 7 -14 16 -30 89 -71
327 -48 283 -51 312 -41 370 40 226 251 378 481 347 134 -19 260 -111 322
-236 50 -102 49 -164 -6 -483 -59 -341 -54 -320 -81 -332 -20 -9 -29 -7 -55
16 -17 14 -38 26 -45 26 -7 0 -20 3 -28 6 -9 3 -25 -4 -36 -15 -41 -41 -20
-161 28 -161 10 0 40 11 67 25 27 14 53 25 57 25 26 0 77 35 91 63 20 39 116
590 116 667 -1 215 -172 416 -392 462 l-59 12 6 66 c46 472 199 812 445 991
52 37 130 133 118 145 -2 1 -41 -18 -87 -43z"/>
</g>
</svg>
